<svg xmlns="http://www.w3.org/2000/svg" width="42" height="56" viewBox="0 0 42 56">
    <g fill="none" fill-rule="nonzero">
        <path fill="#3F3F3F" d="M21 0c11.58 0 21 9.64 21 21.49 0 4.88-1.564 9.481-4.523 13.31L21 56V30.447c4.964 0 9.002-4.133 9.002-9.212 0-5.081-4.038-9.213-9.002-9.213V0z"/>
        <path fill="#000" d="M11.998 21.235c0 5.08 4.038 9.212 9.002 9.212V56L4.527 34.805C1.564 30.97 0 26.369 0 21.49 0 9.64 9.42 0 21 0v12.022c-4.964 0-9.002 4.132-9.002 9.213z"/>
    </g>
</svg>
